<svg xmlns="http://www.w3.org/2000/svg" viewBox="269 324 456 353" width="456" height="353">
  <path d="M 413.722 343.750 C 408.963 354.613, 397.361 381.275, 387.939 403 C 364.244 457.638, 328.524 539.467, 320.496 557.500 C 316.824 565.750, 312.790 574.975, 311.533 578 C 310.276 581.025, 305.995 590.925, 302.021 600 C 298.047 609.075, 293.542 619.425, 292.011 623 C 290.479 626.575, 284.675 640.029, 279.113 652.898 C 273.551 665.767, 269 676.454, 269 676.648 C 269 676.842, 282.892 677, 299.870 677 L 330.741 677 340.014 655.750 C 345.113 644.063, 350.711 631.350, 352.453 627.500 C 354.195 623.650, 360.516 609.362, 366.501 595.750 L 377.382 571 438.191 571 C 471.636 571, 498.968 570.663, 498.929 570.250 C 498.890 569.837, 493.143 557.125, 486.159 542 L 473.460 514.500 436.781 514 L 400.103 513.500 403.930 505 C 425.214 457.725, 431.861 442.756, 442.044 419.169 C 451.989 396.135, 454.009 392.148, 454.895 393.804 C 455.474 394.885, 459.724 404.034, 464.341 414.135 C 481.808 452.351, 512.031 517.345, 534.496 565 C 539.033 574.625, 546.380 590.241, 550.822 599.702 C 555.264 609.162, 559.628 618.314, 560.520 620.039 L 562.142 623.175 578.190 594.338 C 587.017 578.477, 605.367 545.700, 618.969 521.500 C 632.570 497.300, 649.729 466.750, 657.099 453.611 L 670.500 429.723 670.754 553.361 L 671.008 677 698.004 677 L 725 677 725 500.500 L 725 324 695.720 324 L 666.439 324 648.533 356.250 C 626.477 395.973, 623.183 401.818, 598.249 445.500 C 568.110 498.300, 566.548 500.979, 565.892 500.990 C 565.558 500.995, 563.459 497.063, 561.228 492.250 C 558.997 487.438, 548.203 464.600, 537.242 441.500 C 526.281 418.400, 509.259 382.512, 499.415 361.750 L 481.517 324 451.946 324 L 422.375 324 413.722 343.750" fill="#025A4E"/>
</svg>
