<?xml version="1.0" encoding="UTF-8"?>
<svg xmlns="http://www.w3.org/2000/svg"
     viewBox="0 0 1024 1024"
     preserveAspectRatio="xMidYMid meet">

    <!-- Fond -->
    <rect width="1024" height="1024" fill="#EDE7DE"/>

    <!-- Logo centré automatiquement -->
    <svg x="128" y="128" width="768" height="768"
         viewBox="102.41 0 849 763.88"
         preserveAspectRatio="xMidYMid meet">

        <path fill="#025a4e"
              d="M234.71 472.91 450.11.81s143.6-14.8 189.6 82.2 52.7 112 52.7 112
         174.36 365.7-325.7 382.6c0 0-33.87 185.97-264.3 186.1l63.4-141.5
         s53.36-165.5 267.1-178.6c0 0 156.43-5.53 174.5-62l-86.75-205.19
         -88.85 232.09s-105.04.13-197.1 64.4z"/>

        <path fill="#025a4e"
              d="M951.41 763.71 753.65 331.6s9.32 102.42-84.84 186.52
         l25.4 68.89s53.96 183.23 257.2 176.7z"/>
    </svg>
</svg>
