<?xml version="1.0" encoding="UTF-8"?>
<svg xmlns="http://www.w3.org/2000/svg" viewBox="102.41 0 849 763.88">
  <rect x="102.41" y="0" width="849" height="763.88" fill="#EDE7DE"/>
  <path fill="#025a4e" d="M234.71 472.91 450.11.81s143.6-14.8 189.6 82.2 52.7 112 52.7 112S866.77 560.71 366.71 577.61c0 0-33.87 185.97-264.3 186.1l63.4-141.5s53.36-165.5 267.1-178.6c0 0 156.43-5.53 174.5-62l-86.75-205.19-88.85 232.09s-105.04.13-197.1 64.4z"/>
  <path fill="#025a4e" d="M951.41 763.71 753.65 331.6s9.32 102.42-84.84 186.52l25.4 68.89s53.96 183.23 257.2 176.7z"/>
</svg>
