<?xml version="1.0" encoding="utf-8"?>
<!-- Generator: Adobe Illustrator 27.2.0, SVG Export Plug-In . SVG Version: 6.00 Build 0)  -->
<svg version="1.1" id="Layer_1" xmlns="http://www.w3.org/2000/svg" xmlns:xlink="http://www.w3.org/1999/xlink" x="0px" y="0px"
	 viewBox="0 0 441.214 441.214" style="enable-background:new 0 0 441.214 441.214;" xml:space="preserve">
<path d="M311.232,399.34c4.738,0,8.578-3.84,8.578-8.578c0-4.738-3.84-8.58-8.578-8.58s-8.58,3.842-8.58,8.58
	C302.652,395.5,306.494,399.34,311.232,399.34 M129.342,339.978c-4.738,0-8.578,3.84-8.578,8.578c0,4.738,3.84,8.58,8.578,8.58
	c4.74,0,8.58-3.842,8.58-8.58C137.922,343.818,134.082,339.978,129.342,339.978 M413.436,153.452c-4.738,0-8.578,3.84-8.578,8.578
	s3.84,8.58,8.578,8.58s8.58-3.842,8.58-8.58S418.174,153.452,413.436,153.452 M422.524,276.032
	c-2.628-2.486-5.096-3.442-7.506-3.442h-0.002v6.128c0.392,0,1.432,0,3.298,1.766c3.164,2.994,3.196,4.756,3.206,5.336
	c0.078,4.224-6.03,11.028-12.64,17.752c-2.454,2.496-3.768,3.85-5.198,5.322c-1.43,1.472-2.976,3.064-5.914,6.058
	c-9.218,9.392-13.164,10.17-16.712,10.17c-0.792,0-1.664-0.05-2.744-0.16c-5.404-0.542-10.152-5.71-15.39-16.756
	c-2.334-4.92-2.276-9.38,0.174-13.252c2.88-4.554,8.824-7.736,14.456-7.736c1.408,0,2.704,0.206,3.85,0.612
	c2.546,0.898,5.14,1.354,7.712,1.354c7.426,0,13.324-3.732,18.064-6.732c2.902-1.836,5.902-3.734,7.838-3.734v-6.128
	c-7.98,0-15.34,10.466-25.902,10.466c-1.794,0-3.676-0.3-5.672-1.006c-1.84-0.648-3.836-0.958-5.89-0.958
	c-13.04,0-28.342,12.506-20.168,29.74c5.248,11.064,11.206,19.312,20.314,20.228c1.154,0.116,2.264,0.19,3.358,0.19
	c6,0,11.494-2.232,21.086-12.006c5.872-5.986,6.204-6.388,11.108-11.376C427.052,293.83,432.536,285.504,422.524,276.032
	 M220.606,260.676c-4.738,0-8.578,3.842-8.578,8.58c0,4.738,3.84,8.578,8.578,8.578c4.738,0,8.58-3.84,8.58-8.578
	C229.186,264.518,225.344,260.676,220.606,260.676 M265.576,298.942l-78.05,22.08l28.174,109.14l49.876-78.784V298.942z
	 M270.042,355.782l-49.11,77.572l167.57-37.92l-13.062-13.06L270.042,355.782z M271.704,349.88l95.284,24.042l-80.806-80.808
	l-14.478,4.096V349.88z M193.966,395.22c0-4.738-3.842-8.58-8.58-8.58c-4.738,0-8.58,3.842-8.58,8.58s3.842,8.578,8.58,8.578
	C190.124,403.798,193.966,399.958,193.966,395.22 M138.112,386.502l41.612-67.28l-25.398-25.4L53.716,394.43h79.49L138.112,386.502z
	 M220.608,180.538c4.738,0,8.578-3.842,8.578-8.58c0-4.738-3.84-8.578-8.578-8.578c-4.74,0-8.58,3.84-8.58,8.578
	C212.028,176.696,215.868,180.538,220.608,180.538 M211.942,365.802c0-4.738,3.88-8.58,8.664-8.58c4.786,0,8.666,3.842,8.666,8.58
	c0,4.738-3.88,8.578-8.666,8.578C215.822,374.38,211.942,370.54,211.942,365.802 M229.272,75.412c0,4.738-3.88,8.58-8.666,8.58
	c-4.784,0-8.664-3.842-8.664-8.58c0-4.738,3.88-8.578,8.664-8.578C225.392,66.834,229.272,70.674,229.272,75.412 M175.636,142.272
	l78.05-22.08l-28.172-109.14l-49.878,78.782V142.272z M171.17,85.432L220.28,7.86L52.712,45.78l13.062,13.06L171.17,85.432z
	 M169.508,91.334L74.226,67.292l80.806,80.808l14.476-4.096V91.334z M247.248,45.994c0,4.738,3.842,8.58,8.58,8.58
	c4.738,0,8.578-3.842,8.578-8.58s-3.84-8.578-8.578-8.578C251.09,37.416,247.248,41.256,247.248,45.994 M261.488,121.992l25.4,25.4
	l100.61-100.61h-79.492L261.488,121.992z M227.54,220.606l173.018,173.02l-6.932,6.932h-0.002h0.002l-179.662,40.656L135.2,400.558
	H47.588l-6.932-6.932l173.018-173.02L40.656,47.588l6.932-6.932L227.248,0h0.002l78.764,40.656h87.61h0.002l6.932,6.932
	L227.54,220.606z M435.086,163.22c-0.002-3.466-1.822-6.938-5.408-10.312c-5.134-4.832-9.328-8.952-12.696-12.262
	c-9.25-9.086-12.6-12.228-15.614-12.228c-0.706,0-1.56,0.124-2.612,0.38c-2.684,0.654-5.442,1.896-7.094,9.102
	c-1.668,7.28-1.748,18.77-1.35,33.778c0.24,9.148,4.742,13.594,13.764,13.594c6.754,0,14.87-2.802,21.18-7.314
	C431.504,173.49,435.088,168.118,435.086,163.22 M441.214,163.218c0.006,15.024-20.678,28.182-37.138,28.182
	c-10.644,0-19.52-5.502-19.89-19.56c-0.844-31.916,0.48-45.914,13.12-48.996c1.488-0.362,2.814-0.554,4.062-0.554
	c7.574,0,12.25,7.086,32.51,26.156C439.046,153.31,441.21,158.362,441.214,163.218 M378.658,294.738
	c-4.738,0-8.578,3.842-8.578,8.58c0,4.738,3.84,8.578,8.578,8.578s8.58-3.84,8.58-8.578
	C387.238,298.58,383.396,294.738,378.658,294.738 M328.12,234.148c0-4.738-3.84-8.578-8.578-8.578s-8.58,3.84-8.58,8.578
	c0,4.738,3.842,8.58,8.58,8.58S328.12,238.886,328.12,234.148 M349.678,195.994c-0.004,0.258-0.008,0.526-0.01,0.806
	c-0.192,17.888,11.54,30.718,22.532,35.214c1.506,0.616,1.24,2.91-0.368,3.118c-3.512,0.452-16.032-0.024-20.216,0.81
	c-12.404,2.474-20.974,11.276-23.596,20.97c-2.974,11.004-17.318,10.85-18.896-5.132c-1.134-11.468-12-18.618-18.012-19.684
	c-5.86-1.04-9.512,0.528-12.828,0.536c-5.318,0.014-9.566-4.754-9.026-10.394c0.464-4.852,4.602-8.422,9.294-8.464
	c6.814-0.062,13.59,1.116,22.766,1.698c17.058,1.082,35.414-6.918,44.692-20.696C347.152,193.082,349.712,193.924,349.678,195.994
	 M302.394,325.588c-4.738,0-8.578,3.842-8.578,8.58c0,4.738,3.84,8.578,8.578,8.578s8.58-3.84,8.58-8.578
	C310.974,329.43,307.132,325.588,302.394,325.588 M42.456,312.416c2.684-0.654,5.442-1.896,7.094-9.102
	c1.67-7.282,1.748-18.77,1.352-33.78c-0.242-9.146-4.744-13.592-13.764-13.592c-6.754,0-14.87,2.802-21.18,7.314
	c-6.25,4.468-9.832,9.84-9.83,14.736c0.002,3.468,1.822,6.938,5.408,10.314c5.132,4.832,9.326,8.952,12.696,12.262
	c9.248,9.086,12.6,12.228,15.612,12.228C40.55,312.796,41.406,312.672,42.456,312.416 M43.908,318.37
	c-1.488,0.362-2.814,0.554-4.064,0.554c-7.572,0-12.248-7.086-32.508-26.156c-5.168-4.864-7.334-9.916-7.336-14.772
	c-0.008-15.024,20.678-28.182,37.138-28.182c10.642,0,19.52,5.502,19.89,19.56C57.87,301.29,56.548,315.286,43.908,318.37
	 M138.818,115.626c4.738,0,8.58-3.842,8.58-8.58s-3.842-8.578-8.58-8.578s-8.578,3.84-8.578,8.578S134.08,115.626,138.818,115.626
	 M19.692,155.394c0.012,0.58,0.044,2.342,3.208,5.336c1.866,1.766,2.904,1.766,3.296,1.766c1.934,0,4.936-1.898,7.84-3.736
	c4.738-2.998,10.638-6.73,18.064-6.73c2.57,0,5.164,0.456,7.712,1.354c1.146,0.406,2.44,0.61,3.848,0.61
	c5.632,0,11.578-3.18,14.458-7.734c2.45-3.874,2.508-8.332,0.174-13.252c-5.24-11.046-9.986-16.214-15.39-16.758
	c-1.082-0.108-1.954-0.158-2.744-0.158c-3.548,0-7.496,0.778-16.712,10.17c-2.938,2.994-4.484,4.586-5.914,6.058
	c-1.43,1.472-2.746,2.826-5.198,5.322C25.722,144.366,19.616,151.17,19.692,155.394 M27.964,133.346
	c4.902-4.988,5.234-5.39,11.108-11.376c9.592-9.774,15.086-12.006,21.086-12.006c1.092,0,2.202,0.074,3.356,0.19
	c9.11,0.916,15.066,9.164,20.314,20.228c8.176,17.234-7.126,29.74-20.168,29.74c-2.052,0-4.05-0.31-5.89-0.96
	c-1.994-0.704-3.878-1.006-5.67-1.006c-10.562,0.002-17.924,10.468-25.904,10.468c-2.41,0-4.88-0.956-7.508-3.442
	C8.678,155.71,14.162,147.384,27.964,133.346 M27.776,270.604c-4.738,0-8.578,3.842-8.578,8.58s3.84,8.578,8.578,8.578
	s8.58-3.84,8.58-8.578S32.514,270.604,27.776,270.604 M113.092,207.066c0,4.738,3.842,8.578,8.58,8.578s8.578-3.84,8.578-8.578
	c0-4.738-3.84-8.58-8.578-8.58S113.092,202.328,113.092,207.066 M91.534,245.22c0.004-0.258,0.008-0.526,0.012-0.806
	c0.19-17.888-11.54-30.718-22.532-35.214c-1.508-0.616-1.24-2.91,0.368-3.118c3.51-0.452,16.03,0.022,20.216-0.812
	c12.404-2.472,20.974-11.274,23.594-20.968c2.976-11.004,17.32-10.85,18.898,5.132c1.132,11.468,12,18.618,18.012,19.684
	c5.86,1.04,9.512-0.528,12.828-0.536c5.318-0.014,9.566,4.754,9.026,10.392c-0.464,4.854-4.602,8.424-9.296,8.466
	c-6.812,0.062-13.588-1.116-22.764-1.698c-17.06-1.084-35.414,6.918-44.694,20.696C94.06,248.132,91.502,247.29,91.534,245.22
	 M311.87,101.236c4.738,0,8.58-3.84,8.58-8.578s-3.842-8.58-8.58-8.58c-4.738,0-8.578,3.842-8.578,8.58
	S307.132,101.236,311.87,101.236 M129.982,41.874c-4.738,0-8.578,3.84-8.578,8.578s3.84,8.58,8.578,8.58
	c4.738,0,8.58-3.842,8.58-8.58S134.72,41.874,129.982,41.874 M53.976,137.896c0-4.738,3.842-8.58,8.58-8.58s8.578,3.842,8.578,8.58
	c0,4.738-3.84,8.58-8.578,8.58S53.976,142.634,53.976,137.896"/>
</svg>
