<?xml version="1.0" encoding="utf-8"?>
<!-- Generator: Adobe Illustrator 27.2.0, SVG Export Plug-In . SVG Version: 6.00 Build 0)  -->
<svg version="1.1" id="Layer_1" xmlns="http://www.w3.org/2000/svg" xmlns:xlink="http://www.w3.org/1999/xlink" x="0px" y="0px"
	 viewBox="0 0 441.212 441.212" style="enable-background:new 0 0 441.212 441.212;" xml:space="preserve">
<path d="M368.354,322.19c1.466-20.564,17.994-39.352,46.616-53.096c-1.618-1.254-3.868-1.722-6.478-0.85
	c-1.316,0.436-4.374,1.84-8.296,4.122l-2.854-3.248l1.332,4.152c-4.07,2.468-8.878,5.788-13.634,9.912l-3.86-3.224l2.52,4.412
	c-4.508,4.068-8.882,8.854-12.444,14.308l-3.546-1.63l2.79,2.794c-3.95,6.366-6.748,13.606-7.342,21.646
	c-0.572,7.76-1.554,14.288-2.782,19.866c-4.904,18.844-14.388,25.93-18.792,32.336c-6.698,9.742-9.44,14.904-0.924,20.07
	c2.084-6.904,6.206-15.132,12.034-22.204C361.728,360.594,366.216,352.152,368.354,322.19 M374.464,322.626
	c-2.16,30.302-6.792,40.39-17.038,52.826c-5.956,7.228-9.814,15.644-11.396,21.708c0.284,0.132,0.576,0.266,0.882,0.4
	c10.888,4.788,20.404,7.984,27.678,9.42c7.786,1.534,11.68,1.956,13.936-0.552c-12.832-16.472-1.46-39.134,19.048-40.82
	c0,0-0.438-4.48-0.894-11.068l-13.736,7.016c-1.51,0.77-3.352,0.172-4.124-1.336c-0.77-1.508-0.17-3.354,1.334-4.122l16.108-8.224
	c-0.09-1.618-0.176-3.296-0.25-5.014l-10.84,5.534c-1.506,0.768-3.352,0.17-4.124-1.336c-0.766-1.508-0.17-3.352,1.338-4.122
	l13.384-6.832c-0.048-1.694-0.08-3.4-0.096-5.094l-8.272,4.222c-1.508,0.77-3.352,0.172-4.122-1.334
	c-0.77-1.508-0.17-3.354,1.336-4.122l11.09-5.664c0.016-0.764,0.036-1.522,0.06-2.268c0.032-1.012,0.106-2.01,0.19-3.002
	l-6.326,3.23c-1.506,0.77-3.35,0.172-4.122-1.336c-0.768-1.506-0.17-3.352,1.338-4.122l10.182-5.198
	c2.868-14.256,9.604-26.32,10.56-35.542c0.044-0.426,0.048-0.844,0.032-1.256C391.068,287.364,375.77,304.35,374.464,322.626
	 M330.826,392.632L286.58,436.88l4.332,4.332l43.994-43.996C333.12,395.808,331.766,394.286,330.826,392.632 M359.7,308.298
	L231.12,436.88l4.334,4.332l121.764-121.764C357.634,315.552,358.48,311.828,359.7,308.298 M392.06,162.848
	c-0.316-12.206-2.504-24.372-6.61-36.012l-30.65,30.646c2.69,16.266,0.732,33.146-5.872,48.5L392.06,162.848z M391.994,171.58
	l-159.11,159.112c-33.736,33.736-88.628,33.734-122.364,0c-10.328-10.328-17.48-22.644-21.484-35.724L59.76,324.246
	c5.616,12.216,13.444,23.66,23.494,33.71c45.57,45.57,119.718,45.57,165.288,0l109.412-109.414l0.02-0.02
	C379.304,227.182,390.644,199.58,391.994,171.58 M55.762,314.376l30.648-30.648c-2.69-16.264-0.732-33.144,5.874-48.496
	L49.15,278.364C49.466,290.57,51.654,302.736,55.762,314.376 M94.002,290.004c3.49,13.326,10.428,25.93,20.852,36.354
	c31.346,31.346,82.35,31.346,113.696,0l97.808-97.806c17.908-17.908,25.566-42.23,23.012-65.64l-136.118,136.12
	c-19.594,19.594-51.478,19.592-71.07,0c-11.72-11.72-16.424-27.83-14.126-43.082L94.002,290.004z M292.098,206.318l0.018-0.016
	c15.752-15.774,15.748-41.422-0.018-57.188c-15.772-15.772-41.436-15.772-57.206,0l-85.778,85.778
	c-15.772,15.772-15.772,41.434,0,57.206c15.77,15.772,41.432,15.772,57.206,0l85.778-85.778V206.318z M313.154,185.262
	l34.056-34.054c-3.492-13.328-10.428-25.93-20.852-36.354c-31.348-31.348-82.35-31.346-113.698,0l-97.806,97.806
	c-17.908,17.908-25.568,42.23-23.014,65.64l136.118-136.12c19.596-19.594,51.478-19.594,71.074,0
	C310.748,153.898,315.452,170.01,313.154,185.262 M49.216,269.632l159.112-159.11c33.734-33.738,88.626-33.738,122.362-0.002
	c10.328,10.328,17.48,22.644,21.484,35.724l29.276-29.278c-5.618-12.218-13.444-23.66-23.496-33.71
	c-45.568-45.57-119.716-45.57-165.286,0L83.254,192.67C61.912,214.014,50.566,241.624,49.216,269.632 M441.212,122.364
	l-39.354,39.354c0.58,17.75-2.536,35.596-9.354,52.276l41.774-41.774l6.934,6.934L255.474,364.89
	c-49.392,49.392-129.76,49.392-179.152-0.002c-9.998-9.996-17.968-21.264-23.92-33.284l-45.468,45.47L0,370.14l48.144-48.146
	c-4.372-11.078-7.134-22.652-8.27-34.356L4.332,323.18L0,318.848l39.356-39.354c-0.582-17.75,2.532-35.598,9.35-52.278
	L6.934,268.992L0,262.058L185.736,76.322c49.392-49.392,129.76-49.392,179.152,0c9.996,9.998,17.97,21.264,23.92,33.286l45.47-45.47
	l6.934,6.934l-48.146,48.144c4.376,11.08,7.134,22.652,8.27,34.358l35.542-35.544L441.212,122.364z M72.86,119.02
	c-1.47,20.566-17.996,39.354-46.618,53.098c1.618,1.254,3.868,1.72,6.476,0.852c1.318-0.44,4.376-1.842,8.298-4.124l2.852,3.248
	l-1.33-4.152c4.07-2.468,8.876-5.788,13.632-9.912l3.862,3.224l-2.522-4.414c4.512-4.068,8.884-8.852,12.444-14.306l3.546,1.628
	l-2.788-2.792c3.948-6.366,6.748-13.606,7.34-21.646c0.572-7.762,1.556-14.288,2.784-19.866
	c4.902-18.844,14.388-25.928,18.79-32.336c6.698-9.742,9.44-14.904,0.924-20.07c-2.084,6.904-6.206,15.132-12.034,22.204
	C79.484,80.618,74.996,89.06,72.86,119.02 M66.746,118.586c2.162-30.302,6.792-40.39,17.04-52.826
	c5.956-7.228,9.814-15.642,11.398-21.708c-0.288-0.132-0.578-0.266-0.886-0.4c-10.888-4.788-20.402-7.984-27.678-9.42
	c-7.786-1.536-11.678-1.956-13.932,0.552c12.828,16.472,1.456,39.134-19.052,40.82c0,0,0.44,4.48,0.896,11.068l13.738-7.016
	c1.506-0.77,3.35-0.172,4.122,1.336c0.77,1.508,0.17,3.354-1.338,4.122L34.95,93.338c0.088,1.618,0.172,3.296,0.25,5.014
	l10.838-5.534c1.508-0.768,3.352-0.172,4.124,1.336c0.768,1.506,0.17,3.352-1.336,4.122l-13.384,6.834
	c0.046,1.694,0.08,3.396,0.094,5.092l8.274-4.222c1.506-0.77,3.35-0.172,4.122,1.334c0.768,1.508,0.172,3.354-1.336,4.124
	L35.504,117.1c-0.014,0.764-0.034,1.522-0.058,2.268c-0.034,1.012-0.108,2.01-0.194,3.002l6.328-3.23
	c1.506-0.77,3.352-0.172,4.122,1.336c0.768,1.506,0.17,3.352-1.334,4.122l-10.182,5.198c-2.87,14.256-9.606,26.32-10.564,35.542
	c-0.044,0.426-0.046,0.844-0.032,1.256C50.142,153.848,65.442,136.862,66.746,118.586 M110.384,48.578l44.248-44.244L150.3,0
	l-43.994,43.994C108.09,45.404,109.446,46.926,110.384,48.578 M83.992,121.764L205.758,0l4.332,4.334L81.51,132.914
	C82.73,129.384,83.578,125.66,83.992,121.764"/>
</svg>
