<?xml version="1.0" encoding="utf-8"?>
<!-- Generator: Adobe Illustrator 27.2.0, SVG Export Plug-In . SVG Version: 6.00 Build 0)  -->
<svg version="1.1" id="Layer_1" xmlns="http://www.w3.org/2000/svg" xmlns:xlink="http://www.w3.org/1999/xlink" x="0px" y="0px"
	 viewBox="0 0 443.678 443.678" style="enable-background:new 0 0 443.678 443.678;" xml:space="preserve">
<path d="M191.642,351.985c1.946-1.946,1.434-3.404,0.882-4.33l-0.208-0.306c-4.364-7.286,5.646-18.624,17.282-25.594
	c0.63-0.376,1.272-0.738,1.918-1.094v28.856c-5.138,1.694-10.066,2.362-13.804,1.482c-0.37,1.576-1.218,3.106-2.584,4.472
	c-1.37,1.37-2.902,2.244-4.484,2.614c1.534,6.548-1.682,16.746-6.8,25.296c-2.768,4.62-6.228,8.98-9.848,12.29v-40.298
	c4.646-3.46,9.338-4.91,13.004-2.716v0.002l0.312,0.206C188.242,353.419,189.7,353.929,191.642,351.985 M282.706,380.737
	c2.554,15.948-2.608,29.048-17.938,44.378c-15.33,15.33-28.428,20.494-44.376,17.94c-29.132-4.666-54.142-30.632-63.942-43.916
	l0.028-0.028c-4.788-5.628-1.374-18.648,4.928-29.172c1.878-3.136,4.08-6.142,6.428-8.794v38.97
	c15.634,3.864,36.368-3.166,52.57-19.368c16.198-16.2,23.228-36.934,19.366-52.566c-2.922,5.678-9.514,11.686-16.734,16.012
	c-1.732,1.036-3.534,1.984-5.358,2.842v-29.318c8.412-3.444,16.868-4.526,21.112-0.924
	C252.074,326.595,278.042,351.601,282.706,380.737 M161,62.941c-2.554-15.948,2.608-29.048,17.938-44.378
	c15.33-15.33,28.428-20.494,44.376-17.94c29.134,4.666,54.142,30.63,63.942,43.916l-0.028,0.028
	c4.79,5.628,1.374,18.648-4.928,29.172c-1.878,3.136-4.08,6.142-6.428,8.794v-38.97c-15.632-3.864-36.368,3.166-52.568,19.368
	c-16.2,16.2-23.23,36.934-19.368,52.566c2.922-5.678,9.514-11.686,16.734-16.012c1.732-1.036,3.536-1.984,5.36-2.842v29.318
	c-8.412,3.444-16.87,4.526-21.114,0.924C191.632,117.083,165.666,92.077,161,62.941 M252.064,91.693
	c-1.944,1.946-1.434,3.404-0.88,4.33l0.206,0.306c4.364,7.286-5.646,18.624-17.28,25.594c-0.63,0.376-1.272,0.738-1.918,1.094
	V94.161c5.138-1.694,10.066-2.362,13.802-1.482c0.372-1.576,1.218-3.106,2.584-4.472c1.37-1.37,2.904-2.244,4.484-2.614
	c-1.532-6.548,1.682-16.746,6.802-25.296c2.768-4.62,6.226-8.98,9.846-12.29v40.298c-4.646,3.46-9.336,4.91-13.004,2.716v-0.002
	l-0.312-0.206C255.464,90.259,254.006,89.749,252.064,91.693 M307.406,300.435l81.948-81.948l5.258,5.258l4.356-4.358
	l-14.872-14.872l-4.356,4.358l5.256,5.258l-81.948,81.948l-21.814-21.816l81.948-81.948l5.258,5.26l4.358-4.358l-14.874-14.874
	l-4.356,4.358l5.258,5.258l-81.948,81.948l-21.816-21.814l81.948-81.948l5.258,5.258l4.356-4.358l-14.87-14.872l-4.358,4.358
	l5.258,5.256l-81.948,81.948l-21.896-21.896l98.424-98.424c3.828,2.932,8.236,5.064,12.95,6.202
	c9.06,2.19,16.092,9.206,18.356,18.314l0.932,3.75c3.722,14.98,15.288,26.612,30.186,30.36c11.776,2.962,19.116,9.936,21.822,20.73
	l0.17,0.776c1.94,8.54,5.16,17.55,13.756,22.682l-96.104,96.102L307.406,300.435z M116.442,320.265
	c-3.83-2.934-8.238-5.066-12.95-6.204c-9.06-2.19-16.094-9.206-18.358-18.314l-0.932-3.75c-3.722-14.98-15.288-26.612-30.184-30.36
	c-11.778-2.962-19.12-9.938-21.824-20.732l-0.17-0.774c-1.94-8.54-5.158-17.55-13.754-22.682l96.104-96.104l21.896,21.898
	l-81.948,81.948l-5.258-5.258l-4.356,4.358l14.87,14.872l4.358-4.358l-5.258-5.258l81.948-81.948l21.816,21.814l-81.948,81.948
	l-5.258-5.258l-4.358,4.358l14.874,14.874l4.356-4.358l-5.258-5.258l81.948-81.948l21.814,21.814l-81.948,81.948l-5.258-5.258
	l-4.356,4.358l14.872,14.872l4.358-4.358l-5.258-5.258l81.948-81.946l21.896,21.896L116.442,320.265z M443.678,221.839l-8.356-2.122
	c-7.65-1.942-11.46-6.916-14.048-18.312l-0.208-0.946c-3.588-14.434-13.618-24.11-29.004-27.98
	c-11.358-2.856-20.18-11.738-23.022-23.176l-0.932-3.752c-3.15-12.684-12.964-22.462-25.61-25.518
	c-2.946-0.712-5.726-1.968-8.21-3.672l68.506-68.506l-6.97-6.974L221.838,214.867L47.852,40.881l-6.97,6.974l66.52,66.52L0,221.839
	l8.352,2.122c7.65,1.942,11.46,6.916,14.05,18.32l0.208,0.938c3.586,14.434,13.614,24.108,29.002,27.98
	c11.358,2.856,20.18,11.738,23.022,23.176l0.932,3.752c3.152,12.684,12.966,22.462,25.61,25.518c2.948,0.712,5.728,1.97,8.212,3.674
	l-68.506,68.504l6.97,6.974l173.986-173.986l173.986,173.986l6.97-6.974l-66.52-66.52L443.678,221.839z"/>
</svg>
