<?xml version="1.0" encoding="UTF-8"?>
<!-- Generator: Adobe Illustrator 27.2.0, SVG Export Plug-In . SVG Version: 6.00 Build 0)  -->
<svg version="1.1" id="Layer_1" xmlns="http://www.w3.org/2000/svg" xmlns:xlink="http://www.w3.org/1999/xlink" x="0px" y="0px" viewBox="0 0 882.423 723.276" style="enable-background:new 0 0 882.423 723.276;" xml:space="preserve">
<g>
	<path d="M820.818,282.688l-8.808-8.816l-26.9,26.896l15.576,15.572L820.818,282.688z M760.878,276.532l15.568,15.572l26.896-26.896   l-8.808-8.808L760.878,276.532z M693.55,445.432l28.028,3.112l72.62-121.364l-17.752-17.744l-96.452,96.452l5.844,32.42   C686.514,442.108,689.686,445.048,693.55,445.432 M739.174,254.828l12.768,12.768l33.652-20.136l-9.02-9.024L739.174,254.828z    M594.59,318.204c-3.472,1.52-5.616,4.94-5.456,8.724c0.156,3.752,2.556,6.956,6.112,8.168l27.984,9.516l117.868-70.528   l-13.972-13.972L594.59,318.204z M600.978,349.992L238.094,712.876l8.664,8.664l367.156-367.148L600.978,349.992z M638.91,391.376   l32.42,5.848l96.452-96.456l-17.744-17.744L628.674,355.64l3.108,28.032C632.17,387.532,635.106,390.704,638.91,391.376    M399.206,389.776l30.736-30.74l-27.928-27.928l-30.74,30.736L399.206,389.776z M410.678,322.44l27.932,27.932l30.732-30.736   l-27.928-27.932L410.678,322.44z M452.478,364.236l27.936,27.932l30.732-30.736L483.214,333.5L452.478,364.236z M471.746,400.836   l-27.936-27.932l-30.732,30.732l27.932,27.936L471.746,400.836z M404.41,412.304L95.17,721.54l-13.864-13.868L390.538,398.44   l-56.204-56.204l8.668-8.668l19.604,19.612l30.74-30.74l-19.608-19.608l8.664-8.668l19.612,19.612l30.736-30.736l-19.612-19.612   l8.664-8.664l56.208,56.208L787.246,1.736L801.11,15.6L491.882,324.832l56.204,56.208l-8.664,8.668l-19.608-19.612l-30.736,30.74   l19.608,19.608l-8.664,8.668L480.414,409.5l-30.74,30.736l19.608,19.608l-8.664,8.668L404.41,412.304z M809.618,325.272   l12.772,12.772l16.388-37.396l-9.024-9.028L809.618,325.272z M870.978,206.124c-15.252-15.256-39.992-15.256-55.248,0l-9.74,9.74   l55.252,55.252l9.736-9.744v0.004C886.238,246.12,886.238,221.38,870.978,206.124 M788.662,233.196l55.252,55.248l8.664-8.664   l-55.256-55.248L788.662,233.196z M732.602,453.988l9.516,27.984c1.212,3.556,4.42,5.956,8.168,6.112   c3.788,0.156,7.208-1.984,8.724-5.46l58.092-132.532l-13.972-13.976L732.602,453.988z M668.118,409.096l-7.34-1.324l-305.1,305.104   l8.66,8.664l305.104-305.1L668.118,409.096z M715.79,566.076l-30.732,30.736l30.528,30.532l30.736-30.736L715.79,566.076z    M754.99,605.276l-30.74,30.732l30.528,30.532l30.74-30.736L754.99,605.276z M746.114,675.204l-30.528-30.528l-30.736,30.736   l30.528,30.528L746.114,675.204z M676.186,666.748l30.732-30.74l-30.528-30.532l-30.736,30.74L676.186,666.748z M696.178,529.128   L802.85,635.804l-87.472,87.472L608.706,616.6l8.664-8.664l19.616,19.616l30.736-30.74l-19.616-19.616l8.664-8.664l19.62,19.616   l30.736-30.736l-19.616-19.62L696.178,529.128z M499.786,490.352l-8.664,8.668l28.28,28.276l87.468-87.472l-28.276-28.276   l-8.668,8.664l19.612,19.612l-30.736,30.736l-19.612-19.612l-8.664,8.668l19.608,19.608l-30.732,30.736L499.786,490.352z    M722.826,463.304L473.262,712.868l8.664,8.668l245.3-245.296L722.826,463.304z M657.002,507.288l8.668-8.664l-28.268-28.272   l-87.476,87.472l28.272,28.268l8.668-8.664l-19.608-19.604l30.74-30.736l19.6,19.604l8.668-8.668l-19.604-19.6l30.74-30.736   L657.002,507.288z M214.302,314.18l7.34,1.32L526.746,10.4l-8.664-8.664l-305.104,305.1L214.302,314.18z M287.83,405.072   c3.472-1.516,5.616-4.94,5.456-8.724c-0.156-3.752-2.552-6.956-6.108-8.168l-27.984-9.516l-117.872,70.528l13.972,13.972   L287.83,405.072z M225.418,215.988l-8.668,8.664l28.268,28.272l87.476-87.472l-28.272-28.268l-8.66,8.664l19.6,19.604   l-30.74,30.736l-19.604-19.604l-8.66,8.668l19.6,19.6l-30.74,30.74L225.418,215.988z M382.634,232.924l8.664-8.664l-28.272-28.28   l-87.472,87.472l28.272,28.276l8.668-8.664l-19.608-19.612l30.732-30.736l19.616,19.608l8.664-8.664l-19.612-19.608l30.74-30.736   L382.634,232.924z M143.25,468.448l-12.772-12.768l-33.652,20.136l9.024,9.024L143.25,468.448z M121.546,446.74l-15.572-15.568   l-26.892,26.896l8.808,8.808L121.546,446.74z M281.442,373.284L644.326,10.4l-8.664-8.664L268.514,368.884L281.442,373.284z    M188.878,277.844l-28.032-3.112L88.23,396.096l17.744,17.744l96.452-96.452l-5.844-32.42   C195.91,281.168,192.738,278.228,188.878,277.844 M61.602,440.588l8.812,8.816l26.896-26.896l-15.572-15.572L61.602,440.588z    M253.75,367.636l-3.112-28.032c-0.384-3.864-3.324-7.032-7.124-7.704l-32.424-5.844l-96.452,96.452l17.752,17.744L253.75,367.636z    M159.594,259.972L409.158,10.408l-8.664-8.668L155.198,247.036L159.594,259.972z M149.818,269.288l-9.516-27.984   c-1.212-3.556-4.416-5.956-8.168-6.112c-3.784-0.16-7.208,1.984-8.72,5.456l-58.1,132.536L79.29,387.16L149.818,269.288z    M11.442,461.9L11.442,461.9c-15.256,15.256-15.256,39.996,0,55.252s39.992,15.256,55.252,0l9.736-9.74L21.182,452.16L11.442,461.9   z M93.758,490.08L38.51,434.828l-8.664,8.668l55.252,55.248L93.758,490.08z M166.63,157.2l30.74-30.736l-30.536-30.532   l-30.736,30.736L166.63,157.2z M127.434,118l30.736-30.736l-30.528-30.528L96.906,87.472L127.434,118z M136.306,48.072   L166.834,78.6l30.74-30.736l-30.528-30.532L136.306,48.072z M206.238,56.528l-30.736,30.736l30.532,30.532l30.732-30.736   L206.238,56.528z M186.25,194.148L79.578,87.472L167.046,0l106.676,106.676l-8.668,8.668l-19.62-19.62l-30.736,30.74l19.616,19.616   l-8.664,8.664l-19.616-19.616l-30.74,30.736l19.62,19.62L186.25,194.148z M52.666,431.656l-9.024-9.028l16.392-37.396   l12.772,12.772L52.666,431.656z"/>
</g>
</svg>