<?xml version="1.0" encoding="utf-8"?>
<!-- Generator: Adobe Illustrator 27.2.0, SVG Export Plug-In . SVG Version: 6.00 Build 0)  -->
<svg version="1.1" id="Layer_1" xmlns="http://www.w3.org/2000/svg" xmlns:xlink="http://www.w3.org/1999/xlink" x="0px" y="0px"
	 viewBox="0 0 382.22 441.214" style="enable-background:new 0 0 382.22 441.214;" xml:space="preserve">
<path d="M220.476,44.122h-26.302v-6.368h5.696v-5.708c3.382-0.356,6.668-1.39,9.626-3.068c1.47-0.836,1.988-2.706,1.154-4.178
	c-0.838-1.472-2.708-1.988-4.178-1.152c-2.1,1.192-4.422,1.96-6.82,2.266c-0.64-4.246-2.792-7.996-5.914-10.664V0H181.2v11.064
	h-23.224v10.952H181.2v6.758c0,1.168,0.81,2.13,1.928,2.462c0.002,0,0.002,0.002,0.002,0.002c2.814,0.832,4.916,3.432,4.916,6.516
	v6.368h-26.304c5.13,9.656,14.88,16.468,26.304,17.514c0.228,112.588,0.312,245.232,2.036,354.428
	c0.194,8.274,0.396,16.546,0.686,24.818c0.008,0.182,0.154,0.314,0.332,0.322v0.01c0.004,0,0.006-0.006,0.01-0.006
	c0.006,0,0.008,0.006,0.012,0.006v-0.01c0.178-0.008,0.324-0.14,0.332-0.322c0.288-8.272,0.492-16.544,0.686-24.818
	c1.722-109.196,1.804-241.84,2.034-354.428C205.596,60.59,215.346,53.778,220.476,44.122 M87.146,317.64l-18.03,18.028
	c-11.592-8.398-27.924-7.41-38.362,3.028l-2.012,2.01l41.97,41.97l2.012-2.01c10.334-10.336,11.41-26.446,3.282-38.02l18.072-18.074
	c7.88-7.878,35.206-34.79,88.258-88.622c-0.016-4.358-0.028-8.718-0.04-13.08C128.544,275.914,94.768,310.018,87.146,317.64
	 M369.88,364.928l-0.014-0.018c0-19.016-15.414-34.43-34.428-34.43c-7.746,0-14.884,2.57-20.636,6.886l-19.728-19.726
	c-7.62-7.622-41.396-41.726-95.148-94.77c-0.012,4.362-0.024,8.724-0.038,13.08c53.048,53.832,80.376,80.744,88.254,88.622
	l19.716,19.714c-4.444,5.918-6.85,13.084-6.85,20.624c0,3.442,0.502,6.808,1.47,10.012l37.868-37.868
	c5.694,0.992,10.944,3.676,15.114,7.846c5.35,5.35,8.294,12.462,8.294,20.028c0,6.32-2.086,12.314-5.886,17.238l-26.982-26.984
	l-5.2,5.198l39.31,39.312l5.2-5.198l-7.95-7.948C367.192,380.438,369.88,372.888,369.88,364.928 M11.16,393.626l6.932,6.934
	l30.92-30.922l-6.93-6.934L11.16,393.626z M361.468,163.972h-23.37v49.668h23.37V163.972z M331.97,163.972h-6.126v49.668h6.126
	V163.972z M316.038,163.99c-20.132,0.362-31.662,16.814-31.662,45.278c0,25.722,12.114,41.8,31.662,42.166V163.99z M382.22,185.73
	l-5.68,2.296l-4.466-11.048c-1.434-3.548-3.01-5.482-4.478-6.56V244.9c0.024,1.016,0.468,25.016-12.83,38.648
	c-5.874,6.024-13.48,9.078-22.608,9.078h-3.062v-6.832h1.268c7.492,0,13.74-2.526,18.566-7.504
	c11.012-11.358,10.518-31.496,10.492-32.348l0.002-9.662h-6.128v9.756c0.008,0.276,0.426,18.526-8.778,28.002
	c-3.678,3.786-8.31,5.628-14.154,5.628h-1.268v-6.782c3.642-0.112,6.806-1.474,9.398-4.078c7.27-7.312,7.276-22.158,7.272-22.786
	v-9.74h-6.128v9.756c0.012,3.596-0.95,13.894-5.496,18.454c-1.424,1.428-3.086,2.166-5.064,2.266
	c-0.16-5.086-4.338-9.176-9.464-9.176h-2.896c-23.37,0-38.472-18.962-38.472-48.312c0-32.2,14.384-51.424,38.472-51.424h50.878
	v5.756c4.366,1.486,7.78,5.2,10.158,11.08L382.22,185.73z M199.94,218.058c41.664-42.416,96.698-98.892,167.38-172.292
	c0.364-0.38,0.364-0.986-0.01-1.358c-0.37-0.372-0.976-0.376-1.356-0.012C300.98,106.608,244.708,161.448,199.968,205.46
	C199.96,209.658,199.95,213.858,199.94,218.058 M20.754,213.64h23.37v-49.668h-23.37V213.64z M50.25,213.64h6.126v-49.668H50.25
	V213.64z M66.182,251.434c19.548-0.366,31.664-16.444,31.664-42.166c0-28.464-11.532-44.916-31.664-45.278V251.434z M10.148,176.978
	l-4.466,11.048L0,185.73l4.468-11.05c2.376-5.88,5.79-9.594,10.156-11.08v-5.756h50.878c24.09,0,38.472,19.224,38.472,51.424
	c0,29.35-15.1,48.312-38.472,48.312h-2.896c-5.124,0-9.302,4.09-9.464,9.176c-1.978-0.1-3.64-0.838-5.062-2.266
	c-4.546-4.56-5.508-14.858-5.498-18.454v-9.756h-6.126v9.74c-0.006,0.628,0,15.474,7.272,22.786c2.59,2.604,5.756,3.966,9.4,4.078
	v6.782h-1.272c-5.844,0-10.472-1.842-14.154-5.628c-9.204-9.476-8.786-27.726-8.776-28.002v-9.756h-6.13l0.002,9.662
	c-0.026,0.852-0.52,20.99,10.492,32.348c4.828,4.978,11.074,7.504,18.566,7.504h1.272v6.832h-3.066
	c-9.126,0-16.734-3.054-22.608-9.078c-13.298-13.632-12.852-37.632-12.828-38.648l-0.002-74.482
	C13.156,171.496,11.582,173.43,10.148,176.978 M14.902,45.766c-0.366-0.38-0.364-0.986,0.008-1.358
	c0.372-0.372,0.976-0.376,1.356-0.012c64.976,62.212,121.248,117.052,165.986,161.064c0.012,4.2,0.02,8.398,0.03,12.598
	C140.618,175.644,85.582,119.166,14.902,45.766"/>
</svg>
